<svg width="20" height="20" viewBox="0 0 20 20" fill="none" xmlns="http://www.w3.org/2000/svg">
<path d="M19.6902 6.24966C19.6302 4.97966 19.3802 3.34966 18.0202 1.98966C16.6602 0.629663 15.0302 0.379664 13.7602 0.319664C12.2502 0.239664 7.76022 0.229664 6.26022 0.319664C4.99022 0.379664 3.36021 0.619663 2.00021 1.98966C0.640209 3.34966 0.390195 4.97966 0.330195 6.24966C0.240195 7.75966 0.240195 12.2497 0.330195 13.7497C0.390195 15.0197 0.630209 16.6497 2.00021 18.0197C3.37021 19.3797 5.00022 19.6297 6.26022 19.6897C7.02022 19.7297 8.5202 19.7497 10.0202 19.7497C11.5202 19.7497 13.0102 19.7297 13.7602 19.6897C15.0302 19.6297 16.6602 19.3897 18.0302 18.0197C19.3902 16.6597 19.6402 15.0297 19.7002 13.7597C19.7902 12.2497 19.7902 7.76965 19.7002 6.25965L19.6902 6.24966ZM18.1902 13.6697C18.1102 15.1797 17.7502 16.1597 16.9502 16.9497C16.1602 17.7397 15.1802 18.1096 13.6702 18.1796C12.2002 18.2596 7.81022 18.2596 6.32022 18.1796C4.82022 18.0996 3.84022 17.7297 3.04022 16.9397C2.25022 16.1497 1.88021 15.1697 1.81021 13.6597C1.73021 12.2197 1.73021 7.75965 1.81021 6.30965C1.89021 4.79965 2.25022 3.81966 3.04022 3.02966C3.83022 2.23966 4.82022 1.86966 6.32022 1.79966C7.06022 1.75966 8.5202 1.73966 9.9902 1.73966C11.4602 1.73966 12.9302 1.75966 13.6702 1.79966C15.1802 1.87966 16.1602 2.23965 16.9502 3.03965C17.7402 3.82965 18.1102 4.80966 18.1802 6.31966C18.2602 7.79966 18.2602 12.1897 18.1802 13.6697H18.1902ZM10.0002 5.24966C7.38021 5.24966 5.25021 7.37966 5.25021 9.99966C5.25021 12.6197 7.38021 14.7497 10.0002 14.7497C12.6202 14.7497 14.7502 12.6197 14.7502 9.99966C14.7502 7.37966 12.6202 5.24966 10.0002 5.24966ZM10.0002 13.2497C8.21021 13.2497 6.75021 11.7897 6.75021 9.99966C6.75021 8.20966 8.21021 6.74966 10.0002 6.74966C11.7902 6.74966 13.2502 8.20966 13.2502 9.99966C13.2502 11.7897 11.7902 13.2497 10.0002 13.2497ZM16.5202 4.49966C16.5202 5.04966 16.0702 5.49966 15.5202 5.49966C14.9702 5.49966 14.5202 5.04966 14.5202 4.49966C14.5202 3.94966 14.9602 3.49966 15.5202 3.49966C16.0702 3.49966 16.5202 3.94966 16.5202 4.49966Z" fill="white"/>
</svg>
