<svg width="22" height="22" viewBox="0 0 22 22" fill="none" xmlns="http://www.w3.org/2000/svg">
<path d="M11 0.25C5.07 0.25 0.25 5.07 0.25 11C0.25 16.93 5.07 21.75 11 21.75C16.93 21.75 21.75 16.93 21.75 11C21.75 5.07 16.93 0.25 11 0.25ZM11 20.25C5.9 20.25 1.75 16.1 1.75 11C1.75 5.9 5.9 1.75 11 1.75C16.1 1.75 20.25 5.9 20.25 11C20.25 16.1 16.1 20.25 11 20.25ZM15.67 15.09C15.67 15.46 15.38 15.71 15.06 15.71C14.89 15.71 14.79 15.66 14.63 15.56C12.11 14.04 9.18999 13.98 6.29999 14.57C6.13999 14.61 5.94001 14.67 5.82001 14.67C5.43001 14.67 5.17999 14.36 5.17999 14.03C5.17999 13.61 5.43001 13.42 5.73001 13.35C9.03001 12.62 12.41 12.68 15.29 14.41C15.54 14.57 15.68 14.71 15.68 15.08L15.67 15.09ZM16.92 12.28C16.92 12.72 16.58 13.07 16.14 13.07C15.93 13.07 15.79 12.98 15.64 12.9C13.12 11.41 9.35999 10.81 6.01999 11.71C5.82999 11.76 5.72001 11.81 5.54001 11.81C5.11001 11.81 4.76001 11.46 4.76001 11.03C4.76001 10.6 4.97001 10.31 5.38 10.2C6.5 9.89 7.65001 9.64999 9.32001 9.64999C11.94 9.64999 14.47 10.3 16.46 11.48C16.79 11.67 16.92 11.92 16.92 12.27V12.28ZM18.32 9.05C18.32 9.6 17.88 9.99001 17.38 9.99001C17.17 9.99001 17.04 9.94 16.86 9.83C13.99 8.12 8.86 7.71 5.53 8.63C5.38 8.67 5.20001 8.73 5.01001 8.73C4.48001 8.73 4.07001 8.31 4.07001 7.78C4.07001 7.25 4.40999 6.92001 4.76999 6.82001C6.18999 6.40001 7.78001 6.21001 9.51001 6.21001C12.45 6.21001 15.54 6.82 17.79 8.14C18.1 8.32 18.31 8.57 18.31 9.05H18.32Z" fill="white"/>
</svg>
